HIERARCHY
ROOT Hips
{
	OFFSET 0.000000 0.000000 0.000000 
	CHANNELS 6 Xposition Yposition Zposition Yrotation Zrotation Xrotation 
	JOINT Lumbar
	{
		OFFSET 0.000000 0.000000 0.000000 
		CHANNELS 3 Zrotation Xrotation Yrotation
		JOINT Neck
		{
			OFFSET 0.000000 0.445665 0.000000 
			CHANNELS 3 Zrotation Xrotation Yrotation
			End Site
			{
				OFFSET 0.000000 0.227535 0.000000 
			}
		}
		JOINT RightShoulder
		{
			OFFSET 0.019635 0.377685 0.194865 
			CHANNELS 3 Zrotation Xrotation Yrotation
			JOINT RightElbow
			{
				OFFSET 0.000000 -0.243375 0.000000 
				CHANNELS 2 Zrotation Yrotation
				JOINT RightWrist
				{
					OFFSET 0.000000 -0.264825 0.000000 
					CHANNELS 2 Zrotation Xrotation
					End Site
					{
						OFFSET 0.006600 -0.176220 0.000990 
					}
				}
			}
		}
		JOINT LeftShoulder
		{
			OFFSET 0.019635 0.377685 -0.194865 
			CHANNELS 3 Zrotation Xrotation Yrotation
			JOINT LeftElbow
			{
				OFFSET 0.000000 -0.243375 0.000000 
				CHANNELS 2 Zrotation Yrotation
				JOINT LeftWrist
				{
					OFFSET 0.000000 -0.264825 0.000000 
					CHANNELS 2 Zrotation Xrotation
					End Site
					{
						OFFSET 0.006600 -0.176220 -0.000990 
					}
				}
			}
		}
	}
	JOINT RightHip
	{
		OFFSET 0.052140 -0.069960 0.075570 
		CHANNELS 3 Zrotation Xrotation Yrotation
		JOINT RightKnee
		{
			OFFSET 0.000000 -0.402270 0.000000 
			CHANNELS 1 Zrotation
			JOINT RightAnkle
			{
				OFFSET 0.000000 -0.404085 0.000000 
				CHANNELS 3 Zrotation Xrotation Yrotation
				End Site
				{
					OFFSET 0.204105 -0.089430 0.008415 
				}
			}
		}
	}
	JOINT LeftHip
	{
		OFFSET 0.052140 -0.069960 -0.075570 
		CHANNELS 3 Zrotation Xrotation Yrotation
		JOINT LeftKnee
		{
			OFFSET 0.000000 -0.402270 0.000000 
			CHANNELS 1 Zrotation
			JOINT LeftAnkle
			{
				OFFSET 0.000000 -0.404085 0.000000 
				CHANNELS 3 Zrotation Xrotation Yrotation
				End Site
				{
					OFFSET 0.204105 -0.089430 -0.008415 
				}
			}
		}
	}
}
MOTION
Frames: 34
Frame Time: 0.02
1.05178 0.73438 1.05763 891.2882 0 1.50054 -8.79495 -4.29046 -4.28858 -24.45924 17.90343 19.24642 27.27113 -43.77677 36.24972 130.76976 33.09433 -58.63483 2.73081 36.83616 -1.81836 -40.91481 92.98821 -158.90063 -74.91006 21.85312 65.86358 2.36476 -6.08292 -68.94974 -0.62906 -3.72284 -12.20966 64.41999 5.31043 7.22581 -70.50769 -1.58912 3.42575 13.92804
1.05173 0.7343 1.05761 891.29717 0 1.52343 -8.84075 -4.30007 -4.42721 -24.29727 17.97083 19.34886 26.73391 -43.89285 35.80931 130.77565 32.56029 -58.48882 2.86904 36.60665 -1.80682 -41.49266 93.07705 -158.89747 -74.44924 21.84749 65.87836 2.34341 -6.07325 -68.97601 -0.6281 -3.72248 -12.20736 64.42455 5.26584 7.20336 -70.51684 -1.59177 3.42077 13.95576
1.05175 0.73421 1.05761 891.31254 0 1.5512 -8.91009 -4.3143 -4.60357 -23.84182 18.10921 19.40454 25.92396 -43.98115 35.13335 130.76773 31.67394 -58.25898 3.10803 36.13293 -1.77436 -42.13245 93.24681 -158.81714 -73.26364 21.77429 65.89603 2.31384 -6.06134 -69.00005 -0.62541 -3.7218 -12.20241 64.43178 5.19503 7.15886 -70.51727 -1.60488 3.4103 14.00157
1.05174 0.73414 1.05761 891.32374 0 1.57534 -8.96477 -4.32523 -4.7544 -23.5491 18.20888 19.48347 25.2774 -44.0787 34.52819 130.75714 30.89901 -58.06082 3.32337 35.80768 -1.75285 -42.72146 93.37207 -158.77526 -72.39932 21.73497 65.91143 2.28968 -6.05141 -69.02377 -0.62368 -3.72124 -12.19862 64.43751 5.13933 7.12548 -70.52194 -1.61263 3.40269 14.0377
1.05173 0.73404 1.0576 891.33909 0 1.60499 -9.03405 -4.34118 -4.93779 -23.14341 18.33373 19.55656 24.47651 -44.1901 34.06763 130.78498 30.31828 -57.88876 3.4489 35.33658 -1.72669 -43.4015 93.53622 -158.7211 -71.56287 21.68418 65.93051 2.25983 -6.03726 -69.05301 -0.62134 -3.72077 -12.19529 64.44428 5.07164 7.08772 -70.52642 -1.62215 3.39371 14.07983
1.05174 0.73397 1.0576 891.34831 0 1.62517 -9.07963 -4.34823 -5.06527 -22.89814 18.42421 19.63007 23.9276 -44.26677 33.25831 130.73107 29.26025 -57.64397 3.78189 35.10488 -1.70422 -43.91189 93.63739 -158.67336 -70.50464 21.64043 65.94308 2.23847 -6.03116 -69.07088 -0.61954 -3.72011 -12.19015 64.44953 5.02127 7.05406 -70.52862 -1.63097 3.38621 14.1139
1.05177 0.73401 1.05757 891.33174 0 1.60922 -9.05034 -4.32369 -5.00529 -23.17924 18.39714 19.71153 24.14135 -44.2472 31.48173 130.43236 26.89105 -57.2053 4.68868 35.61396 -1.70317 -43.89495 93.52967 -158.66294 -68.93735 21.63338 65.9327 2.25421 -6.05123 -69.04999 -0.62338 -3.71812 -12.18219 64.45061 5.03648 7.03317 -70.52978 -1.63265 3.3841 14.12026
1.05182 0.73408 1.05753 891.30989 0 1.58482 -8.99727 -4.29079 -4.89169 -23.62795 18.33424 19.79527 24.61621 -44.19487 29.37552 130.05594 24.06992 -56.69934 5.79523 36.36698 -1.70548 -43.71322 93.35729 -158.66124 -67.18557 21.63533 65.91634 2.27707 -6.07901 -69.01884 -0.62733 -3.71608 -12.17225 64.45002 5.06833 7.01767 -70.52845 -1.6337 3.38363 14.11806
1.05186 0.73412 1.0575 891.29577 0 1.57045 -8.95779 -4.26588 -4.81914 -23.99143 18.29146 19.88086 24.96987 -44.16223 27.45948 129.72902 21.50721 -56.23236 6.79408 36.99393 -1.70191 -43.63586 93.22369 -158.65481 -65.56673 21.63241 65.90572 2.28833 -6.10095 -68.99788 -0.62863 -3.71469 -12.1621 64.44971 5.08446 7.00243 -70.52591 -1.63703 3.3824 14.1205
1.0519 0.73421 1.05747 891.26078 0 1.53155 -8.90754 -4.22463 -4.67996 -24.38475 18.23498 19.95351 25.32549 -44.10853 25.35934 129.34054 18.70464 -55.72485 7.87029 37.67749 -1.71527 -43.43683 93.05436 -158.64895 -63.7155 21.6305 65.88301 2.33249 -6.13223 -68.95472 -0.64017 -3.71078 -12.15627 64.45128 5.13213 6.97566 -70.53224 -1.63283 3.38107 14.1205
1.05195 0.73421 1.05744 891.26616 0 1.53986 -8.87354 -4.21389 -4.66322 -24.75744 18.19754 20.0532 25.74185 -44.09104 23.57425 129.06356 16.30347 -55.28958 8.8285 38.30333 -1.69536 -43.4505 92.94182 -158.64496 -62.31374 21.62948 65.88327 2.31257 -6.14647 -68.95385 -0.63125 -3.71193 -12.14133 64.44877 5.1209 6.97363 -70.52052 -1.64336 3.3804 14.12318
1.05203 0.73399 1.05743 891.39959 0 1.69664 -8.89211 -4.30228 -5.02471 -25.05094 18.22167 20.23619 26.26816 -44.18368 22.6827 129.09952 15.08692 -55.04599 9.43608 38.71813 -1.57493 -44.09771 93.01139 -158.64439 -62.20526 21.62907 65.95517 2.09087 -6.10669 -69.08571 -0.55875 -3.72866 -12.09897 64.43301 4.92119 7.04601 -70.45171 -1.70042 3.3812 14.13661
1.05213 0.73369 1.05742 891.57119 0 1.89845 -8.92738 -4.41948 -5.50625 -25.3159 18.26574 20.44478 26.84629 -44.31351 22.13113 129.25251 14.29965 -54.88141 9.91242 39.06594 -1.4225 -44.9628 93.1381 -158.64573 -62.55881 21.62956 66.0492 1.80847 -6.05034 -69.25816 -0.4669 -3.75021 -12.04804 64.41358 4.66551 7.14195 -70.3662 -1.77129 3.38263 14.15272
1.05222 0.73344 1.05742 891.71498 0 2.06879 -8.95366 -4.51474 -5.91466 -25.58297 18.30023 20.6359 27.39859 -44.42528 21.46297 129.36184 13.33826 -54.69819 10.43326 39.4406 -1.28992 -45.72458 93.23206 -158.64626 -62.6987 21.62969 66.12854 1.56945 -6.00504 -69.40296 -0.38866 -3.76847 -12.00286 64.39745 4.45026 7.2222 -70.29372 -1.83192 3.38378 14.16669
1.05232 0.73314 1.05741 891.90182 0 2.28427 -8.98504 -4.64609 -6.39875 -25.90126 18.3359 20.85187 27.97138 -44.54136 20.62442 129.43046 12.26616 -54.44359 11.0274 39.83957 -1.1349 -46.50071 93.35266 -158.64664 -62.84326 21.6297 66.22686 1.26531 -5.94559 -69.58548 -0.29045 -3.79129 -11.94978 64.37457 4.17357 7.32315 -70.19872 -1.90892 3.38498 14.18422
1.0524 0.73292 1.05741 892.00929 0 2.41781 -9.01006 -4.71044 -6.75551 -26.10429 18.37406 21.02193 28.50804 -44.657 20.22417 129.6099 11.54027 -54.35241 11.43215 40.16787 -1.01913 -47.29839 93.43193 -158.64789 -63.09533 21.63028 66.29144 1.08066 -5.91103 -69.70018 -0.22879 -3.80585 -11.91113 64.36462 4.00974 7.38714 -70.14601 -1.95553 3.38618 14.19512
1.05246 0.73293 1.05739 891.87808 0 2.30311 -9.01352 -4.57226 -6.72188 -25.9925 18.41655 21.06094 28.95168 -44.76868 20.96769 130.09106 11.6033 -54.73623 11.37018 40.32441 -1.01822 -48.1241 93.38577 -158.64916 -63.48911 21.63054 66.25356 1.25482 -5.95391 -69.60927 -0.27675 -3.79554 -11.91456 64.39383 4.1852 7.33788 -70.22009 -1.91101 3.38731 14.18688
1.05251 0.73303 1.05737 891.66754 0 2.10642 -9.01011 -4.36764 -6.55792 -25.76552 18.46065 21.05251 29.35221 -44.87765 22.13921 130.67566 12.01438 -55.2744 11.11681 40.40933 -1.05801 -48.9607 93.2962 -158.65149 -63.98297 21.63158 66.18172 1.54872 -6.02151 -69.4503 -0.36144 -3.77689 -11.93278 64.43572 4.47355 7.25157 -70.33624 -1.83613 3.38839 14.17195
1.05256 0.73308 1.05735 891.50012 0 1.95453 -9.00987 -4.20038 -6.46019 -25.59283 18.50255 21.06444 29.75849 -44.98379 23.10547 131.19718 12.30852 -55.71366 10.93397 40.52162 -1.08024 -49.7789 93.22463 -158.65459 -64.46101 21.6334 66.12801 1.77849 -6.07469 -69.32811 -0.4267 -3.76261 -11.94415 64.47012 4.70094 7.18579 -70.4292 -1.77767 3.38941 14.16021
1.05263 0.73315 1.05735 891.30444 0 1.77254 -9.00991 -4.00398 -6.33739 -25.4112 18.55105 21.08219 30.22534 -45.10815 24.12853 131.79008 12.44117 -56.27588 10.81536 40.6548 -1.09798 -50.66154 93.16089 -158.65268 -64.83416 21.63065 66.06372 2.04692 -6.14072 -69.18278 -0.50278 -3.74606 -11.95581 64.51162 4.96694 7.10536 -70.53862 -1.70866 3.3908 14.14787
1.05266 0.73321 1.05731 891.14795 0 1.633 -9.00764 -3.85199 -6.23387 -25.221 18.58628 21.07639 30.5549 -45.19366 25.13083 132.25798 12.98992 -56.61913 10.52018 40.72677 -1.13441 -51.40951 93.07155 -158.66116 -65.4381 21.63736 66.01306 2.26437 -6.18612 -69.06878 -0.56535 -3.7322 -11.97044 64.54148 5.18033 7.04621 -70.62414 -1.65415 3.39139 14.13526
1.05263 0.73322 1.05714 891.12174 0 1.63206 -8.99943 -3.83981 -6.2185 -25.03666 18.58153 21.01546 30.5163 -45.17013 25.96522 132.34929 14.58534 -56.30559 9.77533 40.66044 -1.21937 -51.78251 92.90757 -158.70027 -66.6974 21.67196 66.00864 2.30937 -6.16833 -69.05912 -0.58138 -3.72787 -11.99016 64.53552 5.21877 7.05576 -70.63201 -1.64766 3.38978 14.12273
1.05258 0.73323 1.05693 891.13704 0 1.67613 -8.98928 -3.87422 -6.22573 -24.84758 18.56381 20.93267 30.3404 -45.10756 26.76182 132.31165 16.59274 -55.76803 8.8613 40.53292 -1.32069 -52.01755 92.72215 -158.74935 -68.17345 21.71565 66.01894 2.2997 -6.12909 -69.08289 -0.58271 -3.72651 -12.01232 64.51756 5.20104 7.08768 -70.61471 -1.65663 3.38736 14.11028
1.05254 0.73324 1.05674 891.13135 0 1.69854 -8.98071 -3.88666 -6.22018 -24.65986 18.55392 20.86084 30.22708 -45.06464 27.5798 132.33662 18.41546 -55.34284 8.03171 40.42494 -1.41008 -52.31628 92.55536 -158.79245 -69.52235 21.75392 66.02223 2.31695 -6.09983 -69.09041 -0.59103 -3.72376 -12.03305 64.50549 5.21064 7.10871 -70.60991 -1.65806 3.3853 14.09831
1.0525 0.73326 1.05653 891.13176 0 1.72344 -8.96888 -3.90049 -6.22132 -24.4713 18.53601 20.78293 30.1125 -45.01479 28.40141 132.34891 20.22291 -54.881 7.16506 40.34894 -1.51952 -52.61562 92.34801 -158.84182 -71.00341 21.79779 66.02576 2.32957 -6.07029 -69.10015 -0.59924 -3.72088 -12.05559 64.49195 5.21651 7.13168 -70.6021 -1.66058 3.38327 14.08395
1.05246 0.73326 1.05635 891.13052 0 1.75462 -8.96357 -3.92293 -6.21487 -24.28506 18.53159 20.71326 29.96729 -44.96864 29.19304 132.35493 22.17663 -54.43714 6.33593 40.19323 -1.59097 -52.87538 92.22256 -158.88031 -72.24999 21.832 66.03265 2.33732 -6.03611 -69.11394 -0.6038 -3.71908 -12.07482 64.47856 5.21536 7.1562 -70.59399 -1.66492 3.38099 14.07465
1.05245 0.73323 1.05626 891.11331 0 1.79506 -8.97605 -3.96154 -6.1888 -24.10557 18.56856 20.67046 29.78179 -44.95535 29.96532 132.38033 24.24103 -54.09522 5.67076 39.8279 -1.54951 -53.10483 92.3119 -158.8878 -72.87821 21.83862 66.04596 2.3444 -5.99249 -69.13244 -0.60083 -3.71978 -12.08365 64.46768 5.208 7.18151 -70.59142 -1.67028 3.37828 14.07967
1.05244 0.73318 1.05619 891.09363 0 1.84017 -8.99537 -4.00683 -6.15393 -23.92945 18.61931 20.63708 29.56878 -44.9449 30.68929 132.40236 26.46632 -53.75906 5.0472 39.38523 -1.46953 -53.29048 92.48751 -158.88375 -73.24973 21.83499 66.06219 2.34798 -5.94514 -69.15394 -0.59466 -3.72146 -12.08911 64.45749 5.19506 7.20746 -70.58921 -1.67709 3.37535 14.08973
1.05244 0.73315 1.05612 891.07625 0 1.88163 -9.01204 -4.04692 -6.11893 -23.75273 18.66315 20.60055 29.3611 -44.92431 31.40675 132.42207 28.75022 -53.44625 4.39237 38.98179 -1.40997 -53.46667 92.63504 -158.88395 -73.68096 21.83513 66.07672 2.35299 -5.90064 -69.17322 -0.59048 -3.72254 -12.09645 64.44746 5.18452 7.23198 -70.58644 -1.68352 3.37249 14.09728
1.05242 0.7331 1.05603 891.05526 0 1.93097 -9.02658 -4.09772 -6.10106 -23.57128 18.70949 20.55884 29.17736 -44.93887 32.27272 132.4537 30.51813 -53.09724 3.78126 38.5607 -1.33984 -53.76281 92.73576 -158.88849 -74.34936 21.83914 66.09322 2.35692 -5.85063 -69.19703 -0.5837 -3.72433 -12.10236 64.43495 5.17269 7.26195 -70.58431 -1.68938 3.36971 14.10578
1.05243 0.73307 1.05598 891.0407 0 1.96456 -9.04736 -4.1272 -6.04642 -23.40126 18.7538 20.52995 28.94091 -44.88249 32.78149 132.46127 33.36152 -52.7261 3.09426 38.1566 -1.28092 -53.79954 92.95357 -158.88138 -74.47364 21.83277 66.10626 2.36289 -5.81134 -69.21197 -0.58159 -3.72489 -12.11046 64.428 5.16288 7.2806 -70.58145 -1.69648 3.36675 14.11347
1.05254 0.73305 1.05603 891.04399 0 1.95218 -9.08225 -4.09606 -5.88153 -23.25604 18.79147 20.53844 28.55059 -44.6207 32.64427 132.40462 39.40227 -53.19703 2.16237 37.83723 -1.27455 -53.13791 93.48388 -158.84271 -73.03763 21.79828 66.10785 2.37619 -5.80412 -69.19903 -0.59461 -3.72141 -12.12511 64.43575 5.16077 7.26639 -70.57491 -1.70753 3.36297 14.11793
1.05269 0.73305 1.05613 891.05366 0 1.92383 -9.12344 -4.04304 -5.68187 -23.12323 18.82624 20.55871 28.11191 -44.28968 32.09793 132.32445 46.46369 -53.5006 1.15814 37.53411 -1.27831 -52.21518 94.12706 -158.79307 -71.08305 21.75401 66.10601 2.39181 -5.80765 -69.17739 -0.61226 -3.71673 -12.1421 64.4492 5.16104 7.24094 -70.56803 -1.71955 3.35906 14.12137
1.05282 0.73303 1.0562 891.06058 0 1.90348 -9.16268 -3.99987 -5.50519 -22.98881 18.86094 20.57099 27.70565 -43.99578 31.51103 132.25448 52.88596 -53.25958 0.20457 37.21191 -1.26951 -51.40903 94.71223 -158.74988 -69.44549 21.71545 66.10647 2.40606 -5.80534 -69.16133 -0.6269 -3.71285 -12.15824 64.46042 5.15996 7.2215 -70.56245 -1.73048 3.35543 14.12509
